<svg  viewBox="0 0 24 24" fill="#A8ABB3" xmlns="http://www.w3.org/2000/svg">
<path d="M12 3C17.5227 3 22 6.53581 22 10.8975C22 15.2591 17.5227 18.7949 12 18.7949C11.3447 18.7952 10.6904 18.7447 10.043 18.6436L6.08887 21.416C6.04689 21.4454 5.99656 21.4608 5.94531 21.4609C5.8941 21.461 5.84379 21.4453 5.80176 21.416C5.75994 21.3868 5.72768 21.3457 5.70996 21.2979C5.69224 21.2498 5.69016 21.197 5.70312 21.1475L6.64258 17.5664C3.85205 16.1653 2.00002 13.7024 2 10.8975C2 6.53581 6.47729 3 12 3Z" fill="#A8ABB3"/>
</svg>
