<svg xmlns="http://www.w3.org/2000/svg" viewBox="0 0 32 32"  fill="#A8ABB3"><title>66-Speech Bubble</title><g id="_66-Speech_Bubble" data-name="66-Speech Bubble"><path d="M31,32a1,1,0,0,1-.71-.29L24.59,26H5a5,5,0,0,1-5-5V5A5,5,0,0,1,5,0H27a5,5,0,0,1,5,5V31a1,1,0,0,1-1,1ZM5,2A3,3,0,0,0,2,5V21a3,3,0,0,0,3,3H25a1,1,0,0,1,.71.29L30,28.59V5a3,3,0,0,0-3-3Z"/><path d="M16,15a2,2,0,1,1,2-2A2,2,0,0,1,16,15Zm0-2h0Z"/><path d="M23,15a2,2,0,1,1,2-2A2,2,0,0,1,23,15Zm0-2h0Z"/><path d="M9,15a2,2,0,1,1,2-2A2,2,0,0,1,9,15Zm0-2H9Z"/></g></svg>