<svg width="34" height="34" viewBox="0 0 34 34" fill="none" xmlns="http://www.w3.org/2000/svg">
<path d="M7.24837 29.0422C6.54412 29.0422 5.94125 28.7914 5.43975 28.2899C4.93825 27.7884 4.6875 27.1855 4.6875 26.4813V7.51986C4.6875 6.81561 4.93825 6.21273 5.43975 5.71123C5.94125 5.20971 6.54412 4.95895 7.24837 4.95895H18.5C18.801 4.95895 19.0533 5.06082 19.257 5.26456C19.4606 5.4683 19.5624 5.72075 19.5624 6.02191C19.5624 6.32309 19.4606 6.57539 19.257 6.7788C19.0533 6.98221 18.801 7.08391 18.5 7.08391H7.24837C7.12123 7.08391 7.01678 7.12478 6.93504 7.20652C6.8533 7.28826 6.81243 7.39271 6.81243 7.51986V26.4813C6.81243 26.6084 6.8533 26.7129 6.93504 26.7946C7.01678 26.8764 7.12123 26.9172 7.24837 26.9172H26.2099C26.337 26.9172 26.4414 26.8764 26.5231 26.7946C26.6049 26.7129 26.6458 26.6084 26.6458 26.4813V15.2297C26.6458 14.9287 26.7476 14.6764 26.9514 14.4727C27.1551 14.2691 27.4075 14.1672 27.7087 14.1672C28.0099 14.1672 28.2622 14.2691 28.4656 14.4727C28.669 14.6764 28.7707 14.9287 28.7707 15.2297V26.4813C28.7707 27.1855 28.52 27.7884 28.0184 28.2899C27.5169 28.7914 26.9141 29.0422 26.2099 29.0422H7.24837ZM24.3574 9.37232H22.5865C22.2854 9.37232 22.0331 9.27047 21.8295 9.06675C21.6258 8.86301 21.524 8.61056 21.524 8.3094C21.524 8.00822 21.6258 7.75592 21.8295 7.55251C22.0331 7.3491 22.2854 7.2474 22.5865 7.2474H24.3574V5.47653C24.3574 5.17548 24.4592 4.92314 24.663 4.71949C24.8667 4.51587 25.1191 4.41406 25.4203 4.41406C25.7215 4.41406 25.9738 4.51587 26.1772 4.71949C26.3806 4.92314 26.4823 5.17548 26.4823 5.47653V7.2474H28.2532C28.5542 7.2474 28.8065 7.34925 29.0102 7.55297C29.2138 7.75671 29.3156 8.00916 29.3156 8.31032C29.3156 8.6115 29.2138 8.8638 29.0102 9.06721C28.8065 9.27062 28.5542 9.37232 28.2532 9.37232H26.4823V11.1432C26.4823 11.4442 26.3804 11.6966 26.1767 11.9002C25.973 12.1038 25.7205 12.2057 25.4194 12.2057C25.1182 12.2057 24.8659 12.1038 24.6625 11.9002C24.4591 11.6966 24.3574 11.4442 24.3574 11.1432V9.37232ZM15.6394 22.6945L13.3182 19.7195C13.1856 19.5579 13.0172 19.4771 12.8129 19.4771C12.6085 19.4771 12.4401 19.5624 12.3075 19.7332L10.0736 22.7054C9.90283 22.9233 9.88035 23.1485 10.0061 23.381C10.1319 23.6135 10.3206 23.7297 10.5721 23.7297H22.9951C23.2466 23.7297 23.4353 23.6135 23.561 23.381C23.6868 23.1485 23.6689 22.9233 23.5072 22.7054L20.1291 18.1803C19.9965 18.0095 19.8258 17.9242 19.6169 17.9242C19.408 17.9242 19.237 18.0107 19.1037 18.1838L15.6394 22.6945Z" fill="#6E6E82"/>
</svg>
