<svg width="20" height="20" viewBox="0 0 20 20" fill="none" xmlns="http://www.w3.org/2000/svg">
<path d="M9.60019 11.811L6.97426 9.18508C6.93803 9.14886 6.90951 9.10841 6.88867 9.06374C6.86784 9.01906 6.85742 8.9712 6.85742 8.92014C6.85742 8.81803 6.89195 8.72931 6.96101 8.654C7.03005 8.57868 7.12105 8.54102 7.23403 8.54102H12.766C12.879 8.54102 12.97 8.57904 13.039 8.65508C13.1081 8.73113 13.1426 8.81986 13.1426 8.92125C13.1426 8.94661 13.1036 9.03461 13.0256 9.18525L10.3999 11.811C10.3395 11.8714 10.2771 11.9154 10.2127 11.9432C10.1482 11.971 10.0773 11.9849 10 11.9849C9.92271 11.9849 9.85182 11.971 9.78738 11.9432C9.72295 11.9154 9.66055 11.8714 9.60019 11.811Z" fill="#9FA6B2"/>
</svg>
