<svg width="22" height="22" viewBox="0 0 22 22" fill="none" xmlns="http://www.w3.org/2000/svg">
<path d="M10.3246 11.6754H0.675439C0.484064 11.6754 0.323647 11.6105 0.194188 11.4808C0.0647292 11.351 0 11.1902 0 10.9983C0 10.8065 0.0647292 10.6462 0.194188 10.5175C0.323647 10.3889 0.484064 10.3246 0.675439 10.3246H10.3246V0.675439C10.3246 0.484064 10.3895 0.323649 10.5192 0.19419C10.649 0.0647307 10.8098 0 11.0017 0C11.1935 0 11.3538 0.0647307 11.4825 0.19419C11.6111 0.323649 11.6754 0.484064 11.6754 0.675439V10.3246H21.3246C21.5159 10.3246 21.6764 10.3895 21.8058 10.5192C21.9353 10.649 22 10.8098 22 11.0017C22 11.1935 21.9353 11.3538 21.8058 11.4825C21.6764 11.6111 21.5159 11.6754 21.3246 11.6754H11.6754V21.3246C11.6754 21.5159 11.6105 21.6764 11.4808 21.8058C11.351 21.9353 11.1902 22 10.9983 22C10.8065 22 10.6462 21.9353 10.5175 21.8058C10.3889 21.6764 10.3246 21.5159 10.3246 21.3246V11.6754Z" fill="#F1F1F5"/>
</svg>
